<?xml version="1.0" encoding="utf-8"?>
<!-- Generator: Adobe Illustrator 27.0.1, SVG Export Plug-In . SVG Version: 6.00 Build 0)  -->
<svg version="1.1" id="Layer_1" xmlns="http://www.w3.org/2000/svg" xmlns:xlink="http://www.w3.org/1999/xlink" x="0px" y="0px"
	 viewBox="0 0 432 72" style="enable-background:new 0 0 432 72;" xml:space="preserve">
<style type="text/css">
	.st0{fill:#FFFFFF;}
</style>
<g>
	<path class="st0" d="M40.6,3.5H26.2c-4.7,0-9.2,1.8-12.6,5.2c-3.4,3.4-5.2,7.8-5.2,12.6v1.4c0,7.2,4.4,13.8,11.1,16.5l20.8,8.5
		c0.2,0.1,0.3,0.3,0.3,0.5v3.5c0,0.1,0,0.2-0.1,0.3c-0.1,0.1-0.2,0.1-0.3,0.1h-13c-0.9,0-1.6-0.7-1.6-1.6v-2.1c0,0,0,0,0,0l-3.3-1.2
		l0.1,3.5c0,1.3,0.5,2.5,1.4,3.4c0.9,0.9,2.1,1.4,3.4,1.4h13c1,0,1.9-0.4,2.6-1.1c0.3-0.3,0.6-0.8,0.8-1.2c0.2-0.4,0.3-0.9,0.3-1.4
		v-3.6c0-1.5-0.9-2.9-2.3-3.4l-20.9-8.5c-5.5-2.2-9-7.6-9-13.5v-1.4c0-3.9,1.5-7.6,4.3-10.3c1.4-1.4,3-2.4,4.7-3.1s3.6-1.1,5.6-1.1
		h14.4c7.8,0,14.1,6.3,14.1,14.1v7.9l3.1,1.2c0,0,0.1,0,0.1,0v-8.9C58,11.3,50.2,3.5,40.6,3.5z"/>
	<path class="st0" d="M46.9,32.8l-20.9-8.5c-0.2-0.1-0.3-0.3-0.3-0.5v-3.5c0-0.1,0-0.3,0.1-0.3l0,0c0.1-0.1,0.2-0.1,0.3-0.1h13
		c0.9,0,1.6,0.7,1.6,1.6v2.2c0,0,0,0,0,0l3.2,1.2v-3.4c0-2.7-2.2-4.8-4.8-4.8h-13c-1,0-1.9,0.4-2.6,1l0,0c-0.7,0.7-1.1,1.7-1.1,2.7
		v3.5c0,1.5,0.9,2.9,2.3,3.4l21,8.6c5.5,2.2,9.1,7.6,9.1,13.5v1.4c0,3.9-1.5,7.6-4.3,10.3l0,0c-2.7,2.7-6.4,4.3-10.3,4.3H25.8
		c-7.8,0-14.1-6.3-14.1-14.1v-7.9l-3.1-1.2c0,0-0.1,0-0.1,0v8.9c0,9.6,7.8,17.4,17.4,17.4h14.3c4.7,0,9.2-1.8,12.6-5.2
		c3.4-3.4,5.2-8.1,5.2-12.9v-1C58,42.1,53.6,35.5,46.9,32.8z"/>
	<path class="st0" d="M14.9,44.3c0,2.3,0,4.7,0,7.1l0,0c0,0.1,0,0.2,0,0.2c0,0.9,0.2,1.7,0.4,2.5c1.3,4.6,5.5,7.9,10.5,7.9h14.4
		c3.4,0,6.6-1.5,8.8-4.2c1.7-2.1,2.5-4.7,2.5-7.3v-1.2c0-4.6-2.8-8.7-7-10.5l-21-8.6c-2.6-1.1-4.3-3.6-4.3-6.4v-3.5
		c0-1.9,0.8-3.7,2.1-5l0,0c1.3-1.2,3-1.9,4.8-1.9h13c1.3,0.1,3.1,0.5,4.8,1.6c0.9,0.6,2.3,1.5,3.1,3.1c0.1,0.3,0.4,0.9,0.5,3.4
		c0.1,1.1,0.1,2.6,0,4.5c1.3,0.5,2.6,1.1,4,1.6v-6.9c0-0.6-0.1-1.2-0.2-1.7c-0.9-5.1-5.4-9-10.7-9H26.2c-3.4,0-6.6,1.5-8.8,4.2
		c-1.7,2.1-2.5,4.7-2.5,7.3v1.2c0,4.6,2.8,8.7,7,10.5l20.9,8.5c2.6,1.1,4.3,3.6,4.3,6.4v3.6c0,2.1-0.9,4.1-2.6,5.4
		c-1.3,1-2.8,1.5-4.4,1.5H27.2c-0.8,0-2.1,0-3.6-0.7c-1.6-0.7-2.6-1.7-2.8-1.9c-2.1-2.2-2.2-5.1-2.2-5.9c0-1.5,0-2.9,0-4.3
		C17.4,45.4,16.1,44.8,14.9,44.3z"/>
</g>
<g>
	<g>
		<path class="st0" d="M108.5,36.3c-1.3-1.2-3.2-2-5.7-2.4l-7.7-1.3c-1-0.2-1.7-0.5-2.3-1c-0.5-0.5-0.7-1-0.7-1.7v-1.5
			c0-0.9,0.3-1.6,1-2.1c0.7-0.6,1.7-0.8,3-0.8h4.8c1.1,0,2,0.4,2.6,1.1c0.7,0.7,1,1.7,1,2.9v0.3h5.5v-0.3c0-1.7-0.4-3.3-1.1-4.7
			c-0.8-1.3-1.8-2.5-3.2-3.2c-1.3-0.7-3-1.1-4.8-1.1h-4.8c-1.9,0-3.6,0.3-5,1c-1.4,0.6-2.6,1.5-3.4,2.7c-0.8,1.1-1.2,2.5-1.2,4v2.3
			c0,1.9,0.7,3.5,2,4.8c1.3,1.2,3.2,2.1,5.6,2.5l7.6,1.3c1,0.2,1.8,0.5,2.4,1c0.6,0.5,0.8,1,0.8,1.7v1.8c0,0.9-0.4,1.6-1.1,2.1
			c-0.8,0.6-1.8,0.9-3.1,0.9h-4.7c-1.3,0-2.5-0.4-3.2-1.3c-0.8-0.9-1.2-2-1.2-3.5v-0.3h-5.5v0.3c0,3,0.9,5.4,2.6,7.1
			c1.7,1.7,4.1,2.6,7.1,2.6h4.8c1.9,0,3.6-0.3,5.1-1c1.5-0.6,2.6-1.6,3.5-2.7c0.8-1.2,1.3-2.5,1.3-4v-2.7
			C110.6,38.9,109.9,37.4,108.5,36.3z"/>
		<path class="st0" d="M129.4,42.2c0,1.2-0.3,2.2-1,2.9c-0.6,0.7-1.4,1.1-2.5,1.1h-3.5c-1.1,0-2-0.4-2.6-1.1c-0.7-0.8-1-1.8-1-3.1
			v-4.9c0-1.3,0.3-2.4,1-3.2s1.5-1.2,2.6-1.2h3.5c1,0,1.7,0.3,2.3,1c0.6,0.6,0.9,1.4,0.9,2.4v0.2h5.5v-0.2c0-2.5-0.8-4.4-2.4-5.9
			c-1.6-1.5-3.7-2.2-6.3-2.2h-3.5c-1.8,0-3.4,0.4-4.8,1.1c-1.4,0.7-2.5,1.8-3.2,3.2c-0.7,1.3-1.1,2.9-1.1,4.7v5.5
			c0,2.6,0.9,4.8,2.5,6.3c1.7,1.6,3.9,2.4,6.7,2.4h3.5c2.6,0,4.8-0.8,6.4-2.5s2.5-3.8,2.5-6.4V42h-5.5L129.4,42.2L129.4,42.2z"/>
		<path class="st0" d="M152,27.9h-2.9c-1,0-2,0.2-3,0.8c-0.8,0.4-1.5,1-2.1,1.6v-10h-5.5v30.4h5.5V37.3c0.2-1.3,0.8-2.4,1.7-3.2
			c0.9-0.8,1.8-1.2,2.9-1.2h2.9c0.8,0,1.4,0.3,2,0.9c0.5,0.6,0.8,1.4,0.8,2.5v14.6h5.5V36c0-2.4-0.7-4.4-2.1-5.9
			C156.2,28.7,154.3,27.9,152,27.9z"/>
		<path class="st0" d="M181,29c-1.4-0.7-3-1.1-4.8-1.1h-3.9c-1.8,0-3.5,0.4-4.8,1.1c-1.4,0.7-2.5,1.8-3.2,3.2
			c-0.8,1.3-1.2,2.9-1.2,4.7v5.5c0,2.6,0.9,4.8,2.5,6.4c1.7,1.6,4,2.5,6.7,2.5h3.8c2.9,0,5.1-0.8,6.8-2.5c1.7-1.6,2.5-3.8,2.5-6.4
			v-5.5c0-1.7-0.4-3.3-1.2-4.7C183.4,30.9,182.3,29.8,181,29z M179.8,37V42c0,1.3-0.3,2.3-1,3.1s-1.6,1.2-2.8,1.2h-3.7
			c-1.1,0-2-0.4-2.7-1.2s-1-1.8-1-3.1V37c0-1.3,0.3-2.3,1-3.1s1.6-1.2,2.8-1.2h3.7c1.2,0,2.1,0.4,2.8,1.2
			C179.5,34.7,179.8,35.8,179.8,37z"/>
		<path class="st0" d="M194.9,45.4c-0.3-0.3-0.5-0.9-0.5-1.7V20.2h-5.5v23.8c0,2.3,0.6,4,1.7,5.1c1.2,1.1,3,1.7,5.5,1.7h2.6v-4.8
			h-2.4C195.7,45.9,195.2,45.8,194.9,45.4z"/>
		<path class="st0" d="M220.4,30c-1.5-1.3-3.6-2.1-6.1-2.1h-3.7c-2.5,0-4.5,0.6-6.1,1.9s-2.3,3-2.3,5.1v0.2h5.5v-0.2
			c0-0.6,0.2-1.2,0.8-1.6c0.6-0.4,1.3-0.6,2.2-0.6h3.7c0.9,0,1.6,0.2,2.1,0.8c0.6,0.5,0.8,1.2,0.8,2.1v2.3c-0.6-0.3-1.4-0.6-2.2-0.8
			c-1-0.2-1.9-0.4-2.7-0.4h-2.7c-2.4,0-4.3,0.6-5.8,1.7c-1.5,1.2-2.2,2.7-2.2,4.7v1.6c0,2,0.7,3.6,2.1,4.7c1.4,1.2,3.2,1.7,5.5,1.7
			h2.7c1,0,2.1-0.3,3.2-0.9c0.9-0.5,1.7-1.1,2.3-1.8v2.3h5.2V35.5C222.7,33.2,221.9,31.3,220.4,30z M207,43.2c0-0.6,0.2-1.1,0.7-1.5
			c0.5-0.4,1.2-0.6,2-0.6h2.8c1,0,1.9,0.2,2.8,0.4c0.8,0.2,1.4,0.6,1.9,0.9v0.9c-0.4,1-1,1.8-1.9,2.5c-0.9,0.6-1.9,1-3,1h-2.5
			c-0.9,0-1.5-0.2-2.1-0.6c-0.5-0.4-0.7-0.9-0.7-1.6V43.2z"/>
		<path class="st0" d="M234.2,29c-0.9,0.5-1.6,1-2.1,1.7v-2.5h-5.2v22.5h5.5V38.4c0-1.6,0.5-2.9,1.5-3.8c1-1,2.3-1.5,3.9-1.5h2.1
			v-4.9h-2.1C236.5,28.2,235.3,28.5,234.2,29z"/>
		<path class="st0" d="M257.6,38l-7.9-1.4c-0.5-0.1-1-0.2-1.2-0.5c-0.3-0.2-0.4-0.6-0.4-0.9v-0.9c0-0.5,0.2-0.9,0.7-1.1
			c0.6-0.3,1.3-0.5,2.2-0.5h3.5c0.8,0,1.4,0.2,1.9,0.6c0.5,0.4,0.7,1,0.7,1.7v0.2h5.5v-0.2c0-2.1-0.8-3.9-2.2-5.1
			c-1.5-1.3-3.4-2-5.8-2h-3.5c-2.6,0-4.7,0.6-6.2,1.7c-1.5,1.1-2.3,2.6-2.3,4.5v1.3c0,1.3,0.6,2.5,1.6,3.5c1,1,2.5,1.7,4.2,1.9
			l7.6,1.3c0.6,0.1,1,0.3,1.3,0.6c0.3,0.2,0.4,0.6,0.4,0.9v1c0,0.5-0.2,0.9-0.7,1.2c-0.6,0.3-1.3,0.5-2.2,0.5h-3.9
			c-1,0-1.7-0.2-2.3-0.8c-0.6-0.6-0.9-1.2-0.9-2.1v-0.2h-5.5v0.2c0,2.3,0.8,4.2,2.4,5.5s3.6,2.1,6.3,2.1h3.9c2.5,0,4.6-0.6,6.1-1.7
			c1.6-1.1,2.4-2.6,2.4-4.5v-1.7c0-1.3-0.6-2.5-1.5-3.4C260.6,38.9,259.3,38.3,257.6,38z"/>
		<path class="st0" d="M280.5,27.9h-2.9c-1,0-2,0.2-3,0.8c-0.8,0.4-1.5,1-2.1,1.6V20.2H267v30.6h5.5V37.3c0.2-1.3,0.8-2.4,1.7-3.2
			c0.9-0.8,1.8-1.2,2.9-1.2h2.9c0.8,0,1.4,0.3,2,0.9c0.5,0.6,0.8,1.4,0.8,2.5v14.6h5.5V36c0-2.4-0.7-4.4-2.1-5.9
			C284.7,28.7,282.8,27.9,280.5,27.9z"/>
		<path class="st0" d="M292.4,28.3h5.5v22.5h-5.5V28.3z M295.1,20.2c-0.8,0-1.5,0.2-2,0.8c-0.5,0.5-0.8,1.2-0.8,1.9
			c0,0.8,0.2,1.4,0.8,1.9c0.5,0.5,1.2,0.8,2,0.8c0.8,0,1.5-0.2,2.1-0.8c0.6-0.5,0.8-1.2,0.8-1.9c0-0.8-0.2-1.4-0.8-1.9
			C296.6,20.5,295.9,20.2,295.1,20.2z"/>
		<path class="st0" d="M315.5,27.9h-2.9c-1,0-2,0.3-3,0.9c-0.8,0.4-1.4,1-2.1,1.7v-2.1h-5.2v30.5h5.5v-9.7c0.6,0.6,1.2,1,1.9,1.3
			c1,0.5,1.9,0.6,2.8,0.6h2.9c2.6,0,4.8-0.9,6.4-2.6c1.6-1.7,2.4-4,2.4-6.8v-5.1c0-2.6-0.8-4.7-2.5-6.3
			C320.2,28.7,318.1,27.9,315.5,27.9z M318.7,41.4c0,1.4-0.4,2.6-1,3.6c-0.7,0.9-1.6,1.3-2.7,1.3h-2.9c-1.1,0-2.1-0.4-2.9-1.2
			s-1.3-1.9-1.4-3.2v-5.1c0.3-1.2,1-2.1,1.7-2.9s1.7-1.1,2.6-1.1h2.9c1.1,0,2.1,0.4,2.7,1.1c0.7,0.8,1,1.7,1,3L318.7,41.4
			L318.7,41.4z"/>
		<path class="st0" d="M346.1,39.9c-1-1-2.4-1.6-4-1.9l-7.9-1.4c-0.5-0.1-1-0.2-1.2-0.5c-0.3-0.2-0.4-0.6-0.4-0.9v-0.9
			c0-0.5,0.2-0.9,0.7-1.1c0.6-0.3,1.3-0.5,2.2-0.5h3.5c0.8,0,1.4,0.2,1.9,0.6s0.7,1,0.7,1.7v0.2h5.5v-0.2c0-2.1-0.8-3.9-2.2-5.1
			c-1.5-1.3-3.4-2-5.8-2h-3.5c-2.6,0-4.7,0.6-6.2,1.7c-1.5,1.1-2.3,2.6-2.3,4.5v1.3c0,1.3,0.6,2.5,1.6,3.5s2.5,1.7,4.2,1.9l7.6,1.3
			c0.6,0.1,1,0.3,1.3,0.6c0.3,0.2,0.4,0.6,0.4,0.9v1c0,0.5-0.2,0.9-0.7,1.2c-0.6,0.3-1.3,0.5-2.2,0.5h-3.9c-1,0-1.7-0.2-2.3-0.8
			c-0.6-0.6-0.9-1.2-0.9-2.1v-0.2h-5.5v0.2c0,2.3,0.8,4.2,2.4,5.5c1.6,1.3,3.6,2.1,6.3,2.1h3.9c2.5,0,4.6-0.6,6.1-1.7
			c1.6-1.1,2.4-2.6,2.4-4.5v-1.7C347.7,42,347.2,40.8,346.1,39.9z"/>
	</g>
	<g>
		<g>
			<path class="st0" d="M390.5,36.6c-0.3-0.4-0.8-0.6-1.3-0.6h-1.8c-0.6,0-1,0.2-1.3,0.6c-0.3,0.4-0.5,0.9-0.5,1.5v2.5
				c0,0.6,0.2,1.1,0.5,1.5c0.3,0.4,0.7,0.5,1.3,0.5h1.9c0.5,0,1-0.1,1.3-0.5c0.4-0.4,0.5-0.9,0.5-1.5v-2.5
				C391.1,37.5,390.9,37,390.5,36.6z M390.5,36.6c-0.3-0.4-0.8-0.6-1.3-0.6h-1.8c-0.6,0-1,0.2-1.3,0.6c-0.3,0.4-0.5,0.9-0.5,1.5v2.5
				c0,0.6,0.2,1.1,0.5,1.5c0.3,0.4,0.7,0.5,1.3,0.5h1.9c0.5,0,1-0.1,1.3-0.5c0.4-0.4,0.5-0.9,0.5-1.5v-2.5
				C391.1,37.5,390.9,37,390.5,36.6z M413.9,28.3h-47c-3.1,0-6,1.3-8,3.3s-3.3,4.9-3.3,8c0,6.3,5.1,11.4,11.4,11.4h46.7
				c6.3,0,11.5-5.2,11.5-11.4v-0.1C425.1,33.3,420.1,28.3,413.9,28.3z M367.7,44.8c-0.3,0.3-0.7,0.5-1.3,0.5c-0.5,0-0.9-0.2-1.3-0.5
				s-0.5-0.7-0.5-1.3c0-0.5,0.2-1,0.5-1.3c0.3-0.3,0.7-0.5,1.3-0.5c0.6,0,1,0.2,1.3,0.5c0.3,0.3,0.5,0.7,0.5,1.3
				C368.2,44,368.1,44.5,367.7,44.8z M381,40.8c0,1.4-0.5,2.5-1.3,3.2c-0.8,0.9-1.9,1.3-3.2,1.3h-1.7c-1.4,0-2.5-0.4-3.4-1.2
				c-0.9-0.9-1.3-1.9-1.3-3.2v-2.8c0-0.9,0.2-1.7,0.6-2.4c0.4-0.6,0.9-1.2,1.7-1.6c0.7-0.4,1.6-0.5,2.5-0.5h1.7
				c1.3,0,2.4,0.3,3.2,1.1c0.8,0.8,1.2,1.7,1.2,3v0.2H378v-0.2c0-0.5-0.1-0.9-0.4-1.2c-0.2-0.3-0.6-0.5-1.1-0.5h-1.7
				c-0.6,0-1,0.2-1.3,0.6c-0.3,0.4-0.5,1-0.5,1.6v2.5c0,0.6,0.2,1.1,0.5,1.5c0.3,0.4,0.7,0.5,1.3,0.5h1.7c0.5,0,0.9-0.2,1.2-0.5
				c0.3-0.3,0.5-0.9,0.5-1.4v-0.1h2.8V40.8z M394,40.8c0,1.4-0.4,2.5-1.3,3.2c-0.9,0.9-2.1,1.3-3.5,1.3h-1.9c-1.4,0-2.5-0.5-3.4-1.3
				c-0.8-0.8-1.3-1.9-1.3-3.2v-2.8c0-0.9,0.2-1.7,0.5-2.4c0.4-0.6,1-1.2,1.7-1.6c0.7-0.4,1.5-0.5,2.5-0.5h2c0.9,0,1.7,0.2,2.4,0.5
				c0.7,0.3,1.3,0.9,1.7,1.6c0.4,0.7,0.5,1.5,0.5,2.4V40.8z M412,45.1h-2.9v-7.6c0-0.4-0.2-0.8-0.3-1c-0.2-0.3-0.4-0.4-0.7-0.4h-1
				c-0.5,0-0.8,0.2-1.1,0.5c-0.3,0.3-0.6,0.8-0.6,1.3v7.2h-2.9v-7.5c0-0.5-0.2-0.9-0.3-1.1c-0.1-0.2-0.4-0.4-0.7-0.4h-1
				c-0.4,0-0.8,0.2-1.1,0.6c-0.3,0.4-0.5,1-0.6,1.6V45h-2.9V33.6h2.7v1c0.2-0.3,0.5-0.6,0.8-0.7c0.5-0.3,1-0.5,1.4-0.5h1.3
				c0.5,0,1.1,0.2,1.6,0.5c0.4,0.2,0.7,0.6,1,1c0.2-0.5,0.6-0.8,1-1c0.5-0.3,1-0.5,1.6-0.5h1.3c1.1,0,2,0.4,2.7,1.1
				c0.6,0.8,1,1.7,1,2.9V45.1z M389.2,36.1h-1.8c-0.6,0-1,0.2-1.3,0.6c-0.3,0.4-0.5,0.9-0.5,1.5v2.5c0,0.6,0.2,1.1,0.5,1.5
				c0.3,0.4,0.7,0.5,1.3,0.5h1.9c0.5,0,1-0.1,1.3-0.5c0.4-0.4,0.5-0.9,0.5-1.5v-2.5c0-0.6-0.2-1.1-0.5-1.5
				C390.2,36.2,389.8,36.1,389.2,36.1z M390.5,36.6c-0.3-0.4-0.8-0.6-1.3-0.6h-1.8c-0.6,0-1,0.2-1.3,0.6c-0.3,0.4-0.5,0.9-0.5,1.5
				v2.5c0,0.6,0.2,1.1,0.5,1.5c0.3,0.4,0.7,0.5,1.3,0.5h1.9c0.5,0,1-0.1,1.3-0.5c0.4-0.4,0.5-0.9,0.5-1.5v-2.5
				C391.1,37.5,390.9,37,390.5,36.6z M390.5,36.6c-0.3-0.4-0.8-0.6-1.3-0.6h-1.8c-0.6,0-1,0.2-1.3,0.6c-0.3,0.4-0.5,0.9-0.5,1.5v2.5
				c0,0.6,0.2,1.1,0.5,1.5c0.3,0.4,0.7,0.5,1.3,0.5h1.9c0.5,0,1-0.1,1.3-0.5c0.4-0.4,0.5-0.9,0.5-1.5v-2.5
				C391.1,37.5,390.9,37,390.5,36.6z"/>
		</g>
	</g>
</g>
<g>
	<rect x="72.4" y="2.5" class="st0" width="0.5" height="67.1"/>
</g>
</svg>
